:SAMPLES-PER-SECOND 30
:FULLY-SPECIFIED
:DEGREES
63
root  -20.8223 40.0558 -2.59206 24.2355 79.0225 29.6697
RightUpLeg  -16.4964 -1.99291 -8.46073
RightLeg  59.7215 -2.0961 -4.3597
RightFoot  7.40128 -0.703039 4.54358
RightToes  0.000482159 0.542163 -0.142577
Spine  13.0198 1.02216 -1.40259
Spine1  8.25825 1.9579 -4.44268
HEad  0.292125 8.81734 -9.89703
LeftShoulder1  6.4989 -9.76509 -42.5393
LeftArm  -13.1682 28.4158 -32.5729
LeftForeArm  34.6256 -11.4155 -4.02059
LeftHand  -0.25398 0.0180481 5.50724
RightShoulder  4.6386 8.2098 33.6544
RightArm  -1.99233 -14.9298 42.4147
RightForeArm  15.7915 14.3302 6.17605
RightHand  -0.529943 -0.821442 -13.3334
LeftUpLeg  -2.18463 9.7715 -7.08685
LeftLeg  14.8325 14.9527 -0.438652
LeftFoot  -8.53543 -0.0269948 3.21847
LeftToes  1.06246e-005 4.65855e-005 -8.18503e-006
64
root  -19.4162 40.1749 -2.60117 23.1641 80.3956 28.628
RightUpLeg  -19.0477 -3.833 -7.03777
RightLeg  53.2914 -3.3755 -5.21818
RightFoot  5.82987 -0.509641 3.63196
RightToes  0.000482159 0.542163 -0.142577
Spine  13.5186 0.689747 -0.657043
Spine1  7.9819 1.43978 -3.61486
HEad  0.448014 8.71244 -10.0594
LeftShoulder1  6.44075 -9.70939 -42.3225
LeftArm  -13.1857 28.5334 -33.1499
LeftForeArm  32.769 -13.2463 -3.89714
LeftHand  -0.25398 0.0180481 5.50724
RightShoulder  4.52485 7.98173 33.4519
RightArm  0.0261829 -17.8358 41.1536
RightForeArm  12.5547 16.1135 5.85737
RightHand  -0.68515 -0.043799 -14.8668
LeftUpLeg  1.24539 6.67076 -6.20222
LeftLeg  12.8186 16.5721 -1.66927
LeftFoot  -9.90118 0.0203824 3.08303
LeftToes  1.06246e-005 4.65855e-005 -8.18503e-006
65
root  -18.0056 40.1642 -2.5684 25.0072 81.6216 30.5288
RightUpLeg  -20.2088 -5.9209 -6.06611
RightLeg  43.7513 -4.87062 -5.27154
RightFoot  3.77131 -0.437035 3.50693
RightToes  0.000482159 0.542163 -0.142577
Spine  13.8403 0.434086 -0.636192
Spine1  7.90654 0.925552 -2.79253
HEad  0.800692 8.59069 -9.88581
LeftShoulder1  6.41668 -9.69995 -42.1855
LeftArm  -13.0173 27.8102 -33.3183
LeftForeArm  31.2636 -14.776 -3.78034
LeftHand  -0.25398 0.0180481 5.50724
RightShoulder  4.45795 7.85616 33.2992
RightArm  0.631379 -20.0887 40.0363
RightForeArm  9.95134 17.005 5.70012
RightHand  -0.828796 0.76107 -15.7135
LeftUpLeg  4.18679 5.00205 -5.91298
LeftLeg  11.6812 16.8118 -2.4249
LeftFoot  -11.3986 0.0697187 2.66328
LeftToes  1.06246e-005 4.65855e-005 -8.18503e-006
66
root  -16.532 40.0045 -2.4767 31.5635 82.7364 36.8537
RightUpLeg  -20.4562 -8.59808 -5.4718
RightLeg  31.5526 -5.13964 -3.76522
RightFoot  2.88169 -0.548411 4.54197
RightToes  0.000482159 0.542163 -0.142577
Spine  13.4568 0.190088 -1.40873
Spine1  8.09281 0.326545 -1.86888
HEad  1.44886 8.51435 -9.50034
LeftShoulder1  6.36877 -9.62008 -42.1202
LeftArm  -12.5796 26.3196 -33.1185
LeftForeArm  30.9429 -15.9641 -3.69656
LeftHand  -0.25398 0.0180481 5.50724
RightShoulder  4.42415 7.81107 33.1573
RightArm  -0.447524 -21.5128 39.2099
RightForeArm  9.76548 16.6567 5.7583
RightHand  -0.873216 1.10224 -15.7008
LeftUpLeg  6.44039 4.47187 -6.03671
LeftLeg  11.6829 16.1619 -2.62694
LeftFoot  -13.3052 0.124468 2.53366
LeftToes  1.06246e-005 4.65855e-005 -8.18503e-006
67
root  -15.003 39.8125 -2.35741 42.3758 83.8971 47.3342
RightUpLeg  -20.0166 -11.1943 -5.05176
RightLeg  18.206 -3.49952 -1.08667
RightFoot  3.18755 -0.571244 4.64295
RightToes  0.000482159 0.542163 -0.142577
Spine  12.8042 -0.143491 -2.1473
Spine1  8.33111 -0.376841 -0.66984
HEad  2.44642 8.40122 -9.02021
LeftShoulder1  6.27828 -9.48557 -41.9381
LeftArm  -12.3177 24.4261 -32.8617
LeftForeArm  31.299 -16.9213 -3.5851
LeftHand  -0.25398 0.0180481 5.50724
RightShoulder  4.37296 7.73801 32.9563
RightArm  -2.85773 -22.3406 38.7327
RightForeArm  11.4189 15.2894 5.9286
RightHand  -0.846894 0.993764 -15.482
LeftUpLeg  8.91577 4.4321 -5.98602
LeftLeg  11.2854 14.4891 -2.9056
LeftFoot  -15.2352 0.177094 2.54078
LeftToes  1.06246e-005 4.65855e-005 -8.18503e-006
68
root  -13.4498 39.574 -2.21246 59.9783 84.881 64.8805
RightUpLeg  -18.7831 -10.2843 -6.31624
RightLeg  6.3523 -3.19773 1.9689
RightFoot  2.0775 -0.573027 5.02525
RightToes  0.000482159 0.542163 -0.142577
Spine  12.5 -0.516059 -2.73099
Spine1  8.48299 -1.11345 0.545565
HEad  3.54425 7.98662 -8.58021
LeftShoulder1  6.156 -9.35871 -41.4949
LeftArm  -12.672 22.4569 -32.8267
LeftForeArm  31.5762 -18.0696 -3.39837
LeftHand  -0.25398 0.0180481 5.50724
RightShoulder  4.28589 7.57081 32.7576
RightArm  -5.98375 -22.9419 38.5812
RightForeArm  13.2062 13.7128 5.94772
RightHand  -0.818852 0.823135 -15.3691
LeftUpLeg  11.5559 4.91391 -5.52641
LeftLeg  11.2397 11.4962 -3.11044
LeftFoot  -17.2983 0.188328 1.65695
LeftToes  1.06246e-005 4.65855e-005 -8.18503e-006
69
root  -11.8538 39.2566 -2.02019 83.7943 85.3384 88.8511
RightUpLeg  -17.7809 -8.37741 -7.84054
RightLeg  -0.749836 -3.76301 3.84313
RightFoot  -0.0433036 -0.641124 6.42943
RightToes  0.000482159 0.542163 -0.142577
Spine  12.4015 -0.849009 -3.06433
Spine1  8.67592 -1.73734 1.48848
HEad  4.32766 7.16041 -8.29902
LeftShoulder1  6.02532 -9.25259 -40.9079
LeftArm  -13.7274 20.6153 -33.026
LeftForeArm  31.4483 -19.9767 -3.21191
LeftHand  -0.25398 0.0180481 5.50724
RightShoulder  4.20386 7.38849 32.6523
RightArm  -8.98772 -23.5916 38.6492
RightForeArm  13.6092 12.8888 5.68446
RightHand  -0.819735 0.848616 -15.3264
LeftUpLeg  13.7669 6.45728 -4.50376
LeftLeg  12.7677 7.59138 -2.60912
LeftFoot  -19.2967 0.147965 0.440021
LeftToes  1.06246e-005 4.65855e-005 -8.18503e-006
70
root  -10.2201 38.9598 -1.7949 104.935 85.615 110.207
RightUpLeg  -18.1439 -8.59317 -7.32552
RightLeg  -0.456692 -4.12626 4.10656
RightFoot  0.2666 -0.593002 5.9037
RightToes  0.000482159 0.542163 -0.142577
Spine  12.3425 -1.05426 -2.40081
Spine1  9.12368 -2.09145 2.13611
HEad  4.72602 6.25046 -8.25802
LeftShoulder1  5.92708 -9.15253 -40.5287
LeftArm  -15.5571 19.24 -33.1073
LeftForeArm  31.4304 -23.1651 -3.36965
LeftHand  -0.25398 0.0180481 5.50724
RightShoulder  4.18842 7.32568 32.733
RightArm  -11.0296 -24.1323 38.6183
RightForeArm  12.3119 12.9283 5.41201
RightHand  -0.861834 1.07758 -15.5534
LeftUpLeg  15.6918 8.76635 -2.68772
LeftLeg  15.1345 3.74729 -1.29302
LeftFoot  -20.645 0.0878944 -0.432241
LeftToes  1.06246e-005 4.65855e-005 -8.18503e-006
71
root  -8.52838 38.7107 -1.56037 122.12 86.2625 127.953
RightUpLeg  -19.1824 -8.85481 -5.50303
RightLeg  5.23886 -5.24018 3.40499
RightFoot  4.47877 -0.327977 2.67548
RightToes  0.000482159 0.542163 -0.142577
Spine  12.6765 -1.21642 -0.563218
Spine1  9.57823 -2.1515 2.30121
HEad  5.1552 5.8254 -8.49913
LeftShoulder1  5.90398 -9.07703 -40.6193
LeftArm  -17.9877 18.8225 -32.6414
LeftForeArm  32.48 -27.8784 -4.25709
LeftHand  -0.25398 0.0180481 5.50724
RightShoulder  4.2437 7.37657 33.0594
RightArm  -11.8105 -23.9849 38.2419
RightForeArm  10.7454 12.9321 5.36798
RightHand  -0.954797 1.49592 -16.2005
LeftUpLeg  17.5192 9.9617 -0.366698
LeftLeg  18.3233 1.04823 0.13465
LeftFoot  -21.4879 -0.158164 -3.14926
LeftToes  1.06246e-005 4.65855e-005 -8.18503e-006
72
root  -6.78603 38.4725 -1.33088 145.533 86.9938 152.314
RightUpLeg  -20.2085 -12.2157 -2.04581
RightLeg  12.574 -1.66567 1.77123
RightFoot  9.0363 0.19345 -0.773781
RightToes  0.000482159 0.542163 -0.142577
Spine  13.539 -1.61368 2.06248
Spine1  9.6709 -2.08199 1.87309
HEad  5.99352 6.1203 -8.97857
LeftShoulder1  5.95019 -9.05773 -41.0317
LeftArm  -19.6162 19.4162 -31.7495
LeftForeArm  34.2755 -33.6026 -5.4985
LeftHand  -0.25398 0.0180481 5.50724
RightShoulder  4.29177 7.39487 33.4338
RightArm  -12.0374 -22.8624 37.8602
RightForeArm  10.9447 12.338 5.40196
RightHand  -1.05062 1.96388 -16.7171
LeftUpLeg  18.1897 8.15225 1.8211
LeftLeg  24.0887 0.960081 0.88432
LeftFoot  -20.6595 -0.605657 -9.23077
LeftToes  1.06246e-005 4.65855e-005 -8.18503e-006
73
root  -5.09766 38.2772 -1.10174 -179.323 86.7675 -171.849
RightUpLeg  -20.9924 -15.6747 1.34617
RightLeg  19.3277 2.26587 0.80743
RightFoot  8.9063 0.633095 -3.2445
RightToes  0.000482159 0.542163 -0.142577
Spine  14.2773 -2.25178 5.10637
Spine1  9.58957 -2.04023 1.34374
HEad  7.12072 6.63808 -9.48998
LeftShoulder1  5.99597 -9.07537 -41.3105
LeftArm  -20.071 20.2207 -31.1374
LeftForeArm  36.5087 -38.8547 -6.7435
LeftHand  -0.25398 0.0180481 5.50724
RightShoulder  4.26723 7.32282 33.468
RightArm  -12.4535 -21.2556 38.046
RightForeArm  12.522 11.8957 5.29618
RightHand  -1.07089 2.1759 -16.5737
LeftUpLeg  15.6886 5.73796 4.1802
LeftLeg  33.9874 2.36958 2.14598
LeftFoot  -14.491 -0.305972 -14.3706
LeftToes  1.06246e-005 4.65855e-005 -8.18503e-006
74
root  -3.54526 38.1594 -0.856884 -154.768 84.8876 -147.234
RightUpLeg  -21.0565 -16.6379 3.54676
RightLeg  24.5261 1.66271 0.554746
RightFoot  4.79591 0.754631 -5.09003
RightToes  0.000482159 0.542163 -0.142577
Spine  14.3402 -2.75405 8.19622
Spine1  9.81097 -1.96958 1.45563
HEad  8.18552 6.46781 -9.69665
LeftShoulder1  5.991 -9.09927 -41.1894
LeftArm  -19.5365 20.1684 -31.4108
LeftForeArm  38.1901 -42.2589 -7.64403
LeftHand  -0.25398 0.0180481 5.50724
RightShoulder  4.21378 7.27828 33.1375
RightArm  -12.5113 -19.7813 38.6028
RightForeArm  12.3154 12.6881 5.19624
RightHand  -1.0659 2.23044 -16.391
LeftUpLeg  9.50961 3.49516 6.51743
LeftLeg  46.3369 4.17542 5.09181
LeftFoot  -1.65904 0.995325 -12.6397
LeftToes  1.06246e-005 4.65855e-005 -8.18503e-006
75
root  -2.14114 38.0419 -0.603931 -147.653 82.2346 -140.203
RightUpLeg  -20.5027 -18.1145 5.60472
RightLeg  28.2433 0.383423 -0.0187492
RightFoot  0.227766 0.616755 -6.02979
RightToes  0.000482159 0.542163 -0.142577
Spine  14.2248 -2.9649 10.9014
Spine1  10.3474 -1.73961 2.35064
HEad  9.0921 5.20408 -9.37756
LeftShoulder1  5.9816 -9.16382 -40.8938
LeftArm  -18.5125 19.0582 -32.3352
LeftForeArm  38.8405 -43.665 -8.05485
LeftHand  -0.25398 0.0180481 5.50724
RightShoulder  4.21576 7.35231 32.8897
RightArm  -11.1303 -18.32 38.7468
RightForeArm  8.62678 14.621 5.29411
RightHand  -1.19827 2.72699 -17.2709
LeftUpLeg  1.87267 1.1263 8.45515
LeftLeg  57.4061 4.2151 7.53093
LeftFoot  10.1568 1.08239 -5.88298
LeftToes  1.06246e-005 4.65855e-005 -8.18503e-006
76
root  -0.754677 38.1065 -0.346437 -149.904 80.2559 -142.16
RightUpLeg  -18.4444 -19.5737 6.22988
RightLeg  29.8874 -0.215837 -0.387395
RightFoot  -2.86989 0.426144 -5.99103
RightToes  0.000482159 0.542163 -0.142577
Spine  14.487 -2.79479 12.0525
Spine1  10.5494 -1.33758 3.10993
HEad  9.97229 3.45139 -8.66732
LeftShoulder1  6.03578 -9.3135 -40.7743
LeftArm  -17.4993 17.8219 -33.1484
LeftForeArm  39.2943 -43.9908 -8.13445
LeftHand  -0.25398 0.0180481 5.50724
RightShoulder  4.27382 7.47156 32.9967
RightArm  -8.52307 -16.3115 38.2967
RightForeArm  4.11923 16.64 5.39576
RightHand  -1.48395 3.77883 -18.9514
LeftUpLeg  -4.62088 -0.624165 9.17667
LeftLeg  64.6167 3.31461 8.24034
LeftFoot  13.553 0.262924 -1.4651
LeftToes  1.06246e-005 4.65855e-005 -8.18503e-006
